<?xml version="1.0" encoding="UTF-8" standalone="no"?>
<svg
   xmlns:dc="http://purl.org/dc/elements/1.1/"
   xmlns:cc="http://creativecommons.org/ns#"
   xmlns:rdf="http://www.w3.org/1999/02/22-rdf-syntax-ns#"
   xmlns:svg="http://www.w3.org/2000/svg"
   xmlns="http://www.w3.org/2000/svg"
   xmlns:sodipodi="http://sodipodi.sourceforge.net/DTD/sodipodi-0.dtd"
   xmlns:inkscape="http://www.inkscape.org/namespaces/inkscape"
   enable-background="new 0 0 19 19"
   height="19"
   id="Layer_1"
   version="1.1"
   viewBox="0 0 19 19"
   width="19"
   xml:space="preserve"
   inkscape:version="0.48.5 r10040"
   sodipodi:docname="1419215515_edit.svg"
   inkscape:export-filename="/Users/jeppe/git/tenzer.dk/assets/images/blog2.png"
   inkscape:export-xdpi="303.16"
   inkscape:export-ydpi="303.16"><metadata
     id="metadata6216"><rdf:RDF><cc:Work
         rdf:about=""><dc:format>image/svg+xml</dc:format><dc:type
           rdf:resource="http://purl.org/dc/dcmitype/StillImage" /><dc:title></dc:title></cc:Work></rdf:RDF></metadata><defs
     id="defs6214" /><sodipodi:namedview
     pagecolor="#ffffff"
     bordercolor="#666666"
     borderopacity="1"
     objecttolerance="10"
     gridtolerance="10"
     guidetolerance="10"
     inkscape:pageopacity="0"
     inkscape:pageshadow="2"
     inkscape:window-width="1360"
     inkscape:window-height="787"
     id="namedview6212"
     showgrid="false"
     fit-margin-top="0"
     fit-margin-left="0"
     fit-margin-right="0"
     fit-margin-bottom="0"
     inkscape:zoom="12.421053"
     inkscape:cx="9.5"
     inkscape:cy="9.5"
     inkscape:window-x="0"
     inkscape:window-y="0"
     inkscape:window-maximized="0"
     inkscape:current-layer="Layer_1" /><g
     id="g6204"
     transform="translate(0.15332595,0)"
     style="fill:#8c97a0;fill-opacity:1"><path
       d="M 8.44,7.25 C 8.348,7.342 8.277,7.447 8.215,7.557 L 8.174,7.516 8.149,7.69 C 8.049,7.925 8.014,8.183 8.042,8.442 l -0.399,2.796 2.797,-0.399 c 0.259,0.028 0.517,-0.007 0.752,-0.107 l 0.174,-0.024 -0.041,-0.041 c 0.109,-0.062 0.215,-0.133 0.307,-0.225 L 16.685,5.389 13.494,2.198 8.44,7.25 z"
       id="path6206"
       inkscape:connector-curvature="0"
       style="fill:#8c97a0;fill-opacity:1" /><path
       d="m 18.183,1.568 -0.87,-0.87 C 16.672,0.057 15.676,0.014 15.088,0.601 l -0.797,0.797 3.191,3.191 0.797,-0.798 C 18.867,3.205 18.824,2.209 18.183,1.568 z"
       id="path6208"
       inkscape:connector-curvature="0"
       style="fill:#8c97a0;fill-opacity:1" /><path
       d="M 15,9.696 V 17 H 2 V 2 h 8.953 L 12.476,0.58 C 12.638,0.419 12.829,0.359 13.031,0.287 13.074,0.168 13.135,0.107 13.207,0 H 0 V 19 H 17 V 7.928 l -2,1.768 z"
       id="path6210"
       inkscape:connector-curvature="0"
       style="fill:#8c97a0;fill-opacity:1" /></g></svg>