<svg xmlns="http://www.w3.org/2000/svg" width="128" height="128"><g transform="translate(-202.614 -192.6)"><rect width="128" height="128" x="202.614" y="192.6" ry="32" fill="#2c3e50"/><path d="M248.813 201.6c-2.083 1.442-4.968 0-6.73 1.923-.803.962-1.444 2.084-2.406 2.885-.96 1.443-.8 2.565.32 3.206 1.123.64 2.245-1.282 3.527-1.603.64.802 1.443 2.405 2.404 2.566 6.572.64 7.053-.962 9.297-.962.962.16 1.122 1.122 1.923 1.603 2.885 1.122 5.45.64 8.335 1.442 4.328.96 12.983.64 19.074 2.083 5.93 1.443 13.143 2.244 19.715 1.603 1.924-.16 3.847-.48 5.77-.802 2.084-.32 1.924-.32 3.046-1.763 1.122-3.204 1.122-5.288-2.244-4.487-1.282-.32-2.725-.64-4.007-.8-3.046-.482-6.572-1.604-9.617-1.283-3.366.16-6.09-.802-9.297-1.764-6.572-1.602-15.227-1.442-21.96-2.083-2.724-.32-7.532.96-9.776-.16-2.725-1.283-4.168-1.443-7.374-1.603m25.967 18.913c-.32.48-1.443-.32-1.603.64.16.642.48 1.123.64 1.925 1.924-1.603 2.566-2.565.963-2.565m-27.25 53.856c1.604-2.566 4.008-10.1 5.77-11.542 3.528-2.724 4.49-9.456 6.092-12.02.802-3.848 4.328-5.93 4.328-9.618 0-2.404 2.244-3.526 3.366-5.45 1.443-2.725 3.045-5.61 4.488-8.335.48-1.122 1.282-2.083.962-3.526-.16-.802-.802-.642-.64-1.604-.963-.32-1.284 0-2.406.32.16.32 1.122.482.64.963-.64.48-1.28-.482-2.243 0-.48.32.642.8.962 1.28-.642 1.123-2.245.482-3.207 1.123-3.846 2.885-6.892 7.694-9.136 11.22 0 3.686-3.366 6.09-4.808 9.136-1.123 2.564-1.604 5.61-3.688 7.533-1.282 1.442.16 3.205-1.282 4.327-1.282.962-1.763 1.283-1.603 3.046 0 .8-7.373 16.35-8.495 18.272-1.603 2.565-.962 5.13-2.084 8.014-1.282 3.366-2.564 7.053-3.045 10.58-.32 3.525 1.763 6.57 2.885 9.777.8 2.243.48 2.082 2.564 3.044 1.764.962 1.924.962 3.366-.32 1.122-2.084-1.923-4.168 0-6.09-1.122-7.695.802-14.587 4.168-21.48l2.404-4.808c.64-1.282 0-2.725.64-3.847" style="line-height:125%;-inkscape-font-specification:Biro Script" font-size="187.683" letter-spacing="0" word-spacing="0" fill="#3498db" font-family="Biro Script"/></g></svg>